<svg xmlns:rdf="http://www.w3.org/1999/02/22-rdf-syntax-ns#" xmlns="http://www.w3.org/2000/svg" xmlns:cc="http://web.resource.org/cc/" xmlns:dc="http://purl.org/dc/elements/1.1/" xmlns:svg="http://www.w3.org/2000/svg" xmlns:inkscape="http://www.inkscape.org/namespaces/inkscape" xmlns:sodipodi="http://sodipodi.sourceforge.net/DTD/sodipodi-0.dtd" xmlns:ns1="http://sozi.baierouge.fr" xmlns:xlink="http://www.w3.org/1999/xlink" version="1.0" width="388.44" height="30.455" style=""><rect id="backgroundrect" width="100%" height="100%" x="0" y="0" fill="none" stroke="none"/>
  
  <metadata>
    <rdf:RDF>
      <cc:Work>
        <dc:format>image/svg+xml</dc:format>
        <dc:type rdf:resource="http://purl.org/dc/dcmitype/StillImage"/>
        <cc:license rdf:resource="http://creativecommons.org/licenses/publicdomain/"/>
        <dc:publisher>
          <cc:Agent rdf:about="http://openclipart.org/">
            <dc:title>Openclipart</dc:title>
          </cc:Agent>
        </dc:publisher>
        <dc:title>heading flourish</dc:title>
        <dc:date>2007-12-06T07:07:51</dc:date>
        <dc:description/>
        <dc:source>https://openclipart.org/detail/9407/heading-flourish-by-andy</dc:source>
        <dc:creator>
          <cc:Agent>
            <dc:title>Andy</dc:title>
          </cc:Agent>
        </dc:creator>
        <dc:subject>
          <rdf:Bag>
            <rdf:li>decorative</rdf:li>
            <rdf:li>divider</rdf:li>
            <rdf:li>fancy</rdf:li>
            <rdf:li>flourish</rdf:li>
            <rdf:li>remix</rdf:li>
            <rdf:li>title</rdf:li>
          </rdf:Bag>
        </dc:subject>
      </cc:Work>
      <cc:License rdf:about="http://creativecommons.org/licenses/publicdomain/">
        <cc:permits rdf:resource="http://creativecommons.org/ns#Reproduction"/>
        <cc:permits rdf:resource="http://creativecommons.org/ns#Distribution"/>
        <cc:permits rdf:resource="http://creativecommons.org/ns#DerivativeWorks"/>
      </cc:License>
    </rdf:RDF>
  </metadata>
<g class="currentLayer" style=""><title>Layer 1</title><g id="layer1" class="selected" fill="#ffffff" fill-opacity="1">
    <path id="path6882" d="m189.65199981689454,24.399978027343764 c5.8100000000000005,-3.48 6.24,-6.11 6,-12.15 c-0.24000000000000002,-5.91 -4.18,-9.3 -9.47,-11.36 c-5.28,-2.05 -11.44,-0.39000000000000007 -14.2,3 c-2.8200000000000003,3.47 -2.6,7.1 0.16000000000000003,9.63 c1.86,1.7000000000000002 4.02,0 3.94,-1.58 c-0.1,-2.18 -4.57,-1.6600000000000001 -1.26,-5.21 c2.25,-2.4 6.87,-2.13 9.31,0.6300000000000001 c2.45,2.7600000000000002 3.77,7.74 0.47000000000000003,10.42 c-9.54,7.73 -21.22,-4.19 -30.29,-4.11 s-13.928,9.39 -25.556,9 c-21.094,-0.7200000000000001 -34.709,-19.57 -59.005,-19.72 c-11.518,-0.08000000000000002 -28.882,16.03 -37.549,17.67 c-20.432,3.8600000000000003 -31.633,-10.1 -32.185,-9.79 c-0.553,0.32000000000000006 12.7,15.31 32.816,12.31 c9.7224,-1.45 27.604,-16.45 37.864,-16.09 c22.877,0.79 34.431,17.89 57.428,20.03 c11.866,1.11 18.937,-6.86 26.817,-7.1 c7.890000000000001,-0.23 21.3,12.47 34.71,4.42 z" fill="#ffffff" fill-opacity="1"/>
    <path id="use6884" d="m198.78199981689454,24.399978027343764 c-5.8100000000000005,-3.48 -6.23,-6.11 -5.99,-12.15 c0.24000000000000002,-5.91 4.18,-9.3 9.47,-11.36 c5.28,-2.05 11.43,-0.39000000000000007 14.19,3 c2.83,3.47 2.6100000000000003,7.1 -0.15000000000000002,9.63 c-1.87,1.7000000000000002 -4.03,0 -3.95,-1.58 c0.11000000000000001,-2.18 4.58,-1.6600000000000001 1.26,-5.21 c-2.24,-2.4 -6.86,-2.13 -9.3,0.6300000000000001 c-2.45,2.7600000000000002 -3.7800000000000002,7.74 -0.48000000000000004,10.42 c9.55,7.73 21.22,-4.19 30.29,-4.11 c9.08,0.08000000000000002 13.94,9.39 25.56,9 c21.1,-0.7200000000000001 34.71,-19.57 59.01,-19.72 c11.52,-0.08000000000000002 28.88,16.03 37.55,17.67 c20.43,3.8600000000000003 31.63,-10.1 32.18,-9.79 c0.55,0.32000000000000006 -12.7,15.31 -32.81,12.31 c-9.73,-1.45 -27.61,-16.45 -37.87,-16.09 c-22.87,0.79 -34.43,17.89 -57.43,20.03 c-11.86,1.11 -18.93,-6.86 -26.82,-7.1 c-7.890000000000001,-0.23 -21.3,12.47 -34.71,4.42 z" fill="#ffffff" fill-opacity="1"/>
    <path id="path6888" d="m54.57999981689453,13.309978027343732 c-4.0799,2.45 -4.3799,4.3 -4.2104,8.53 c0.16620000000000004,4.16 2.9364,6.54 6.6484000000000005,7.98 s8.033,0.28 9.972,-2.1 c1.984,-2.44 1.828,-4.99 -0.11100000000000002,-6.76 c-1.3090000000000002,-1.2 -2.825,0 -2.77,1.1 c0.07600000000000001,1.53 3.213,1.17 0.8860000000000001,3.66 c-1.5750000000000002,1.6900000000000002 -4.819,1.5 -6.537,-0.44000000000000006 c-1.717,-1.94 -2.649,-5.44 -0.3320000000000001,-7.32 c6.703,-5.42 20.83,10.97 37.894,11.08 c8.089,0.06000000000000001 20.283,-11.25 26.37,-12.41 c14.349,-2.71 22.212,7.1 22.602,6.87 c0.39000000000000007,-0.22000000000000003 -8.918,-10.74 -23.045,-8.64 c-6.828,1.02 -19.387,11.55 -26.592,11.3 c-16.066,-0.55 -31.357,-18.5 -40.775,-12.85 z" fill="#ffffff" fill-opacity="1"/>
    <path id="path6890" d="m331.4219998168945,13.309978027343732 c4.08,2.45 4.38,4.3 4.21,8.53 c-0.16000000000000003,4.16 -2.93,6.54 -6.65,7.98 c-3.71,1.44 -8.03,0.28 -9.97,-2.1 c-1.98,-2.44 -1.83,-4.99 0.11000000000000001,-6.76 c1.31,-1.2 2.83,0 2.77,1.1 c-0.07,1.53 -3.21,1.17 -0.8800000000000001,3.66 c1.57,1.6900000000000002 4.82,1.5 6.53,-0.44000000000000006 c1.7200000000000002,-1.94 2.6500000000000004,-5.44 0.3400000000000001,-7.32 c-6.71,-5.42 -20.83,10.97 -37.9,11.08 c-8.09,0.06000000000000001 -20.28,-11.25 -26.37,-12.41 c-14.35,-2.71 -22.21,7.1 -22.6,6.87 c-0.39000000000000007,-0.22000000000000003 8.92,-10.74 23.04,-8.64 c6.83,1.02 19.39,11.55 26.6,11.3 c16.06,-0.55 31.35,-18.5 40.77,-12.85 z" fill="#ffffff" fill-opacity="1"/>
  </g></g></svg>